<svg width="64" height="64" viewBox="0 0 64 64" fill="none" xmlns="http://www.w3.org/2000/svg">
<path d="M15.9994 58.6654C14.585 58.6654 13.2285 58.1035 12.2283 57.1033C11.2282 56.1032 10.6663 54.7467 10.6663 53.3322V10.6671C10.6663 9.2527 11.2282 7.89619 12.2283 6.89603C13.2285 5.89588 14.585 5.33399 15.9994 5.33399H37.332C38.1761 5.33262 39.0121 5.49826 39.792 5.82136C40.5718 6.14446 41.28 6.61864 41.8758 7.21659L51.4435 16.7842C52.043 17.3802 52.5186 18.0891 52.8426 18.8699C53.1666 19.6507 53.3328 20.488 53.3314 21.3334V53.3322C53.3314 54.7467 52.7695 56.1032 51.7694 57.1033C50.7692 58.1035 49.4127 58.6654 47.9983 58.6654H15.9994Z" stroke="#4CAF50" stroke-width="3.99985" stroke-linecap="round" stroke-linejoin="round"/>
<path d="M37.332 5.33398V18.6668C37.332 19.3741 37.6129 20.0523 38.113 20.5524C38.6131 21.0525 39.2913 21.3334 39.9985 21.3334H53.3314" stroke="#4CAF50" stroke-width="3.99985" stroke-linecap="round" stroke-linejoin="round"/>
<path d="M23.9991 39.9992L29.3323 45.3323L39.9985 34.666" stroke="#4CAF50" stroke-width="3.99985" stroke-linecap="round" stroke-linejoin="round"/>
</svg>
