<svg width="16" height="16" viewBox="0 0 16 16" fill="none" xmlns="http://www.w3.org/2000/svg">
<path d="M3.99871 14.659C3.64526 14.659 3.30628 14.5186 3.05635 14.2687C2.80642 14.0187 2.66602 13.6798 2.66602 13.3263V2.66473C2.66602 2.31128 2.80642 1.9723 3.05635 1.72237C3.30628 1.47244 3.64526 1.33203 3.99871 1.33203H9.3295C9.54043 1.33169 9.74935 1.37308 9.94422 1.45382C10.1391 1.53456 10.3161 1.65305 10.465 1.80248L12.8558 4.19333C13.0056 4.34227 13.1245 4.51941 13.2054 4.71452C13.2864 4.90964 13.3279 5.11887 13.3276 5.33012V13.3263C13.3276 13.6798 13.1872 14.0187 12.9372 14.2687C12.6873 14.5186 12.3483 14.659 11.9949 14.659H3.99871Z" stroke="#C62828" stroke-width="1.3327" stroke-linecap="round" stroke-linejoin="round"/>
<path d="M9.32812 1.33203V4.66377C9.32812 4.8405 9.39833 5.00999 9.52329 5.13495C9.64826 5.25992 9.81775 5.33012 9.99447 5.33012H13.3262" stroke="#C62828" stroke-width="1.3327" stroke-linecap="round" stroke-linejoin="round"/>
<path d="M6.66277 5.99609H5.33008" stroke="#C62828" stroke-width="1.3327" stroke-linecap="round" stroke-linejoin="round"/>
<path d="M10.6609 8.66406H5.33008" stroke="#C62828" stroke-width="1.3327" stroke-linecap="round" stroke-linejoin="round"/>
<path d="M10.6609 11.3281H5.33008" stroke="#C62828" stroke-width="1.3327" stroke-linecap="round" stroke-linejoin="round"/>
</svg>
