<svg width="16" height="16" viewBox="0 0 16 16" fill="none" xmlns="http://www.w3.org/2000/svg">
<path d="M7.99713 5.33012C11.3093 5.33012 13.9943 4.43512 13.9943 3.33108C13.9943 2.22703 11.3093 1.33203 7.99713 1.33203C4.68501 1.33203 2 2.22703 2 3.33108C2 4.43512 4.68501 5.33012 7.99713 5.33012Z" stroke="#C62828" stroke-width="1.3327" stroke-linecap="round" stroke-linejoin="round"/>
<path d="M2 3.33203V12.6609C2 13.1911 2.63184 13.6995 3.75652 14.0744C4.8812 14.4493 6.40659 14.6599 7.99713 14.6599C9.58767 14.6599 11.1131 14.4493 12.2377 14.0744C13.3624 13.6995 13.9943 13.1911 13.9943 12.6609V3.33203" stroke="#C62828" stroke-width="1.3327" stroke-linecap="round" stroke-linejoin="round"/>
<path d="M2 7.99609C2 8.52627 2.63184 9.03474 3.75652 9.40963C4.8812 9.78453 6.40659 9.99514 7.99713 9.99514C9.58767 9.99514 11.1131 9.78453 12.2377 9.40963C13.3624 9.03474 13.9943 8.52627 13.9943 7.99609" stroke="#C62828" stroke-width="1.3327" stroke-linecap="round" stroke-linejoin="round"/>
</svg>
