<svg width="40" height="40" viewBox="0 0 40 40" fill="none" xmlns="http://www.w3.org/2000/svg">
<path d="M28 18H12C10.8954 18 10 18.8954 10 20V32C10 33.1046 10.8954 34 12 34H28C29.1046 34 30 33.1046 30 32V20C30 18.8954 29.1046 18 28 18Z" fill="#D4AF37" stroke="#B8941F" stroke-width="1.49999"/>
<path d="M14 18V12C14 8.68629 16.6863 6 20 6C23.3137 6 26 8.68629 26 12V18" stroke="#D4AF37" stroke-width="2.99998" stroke-linecap="round"/>
<path d="M20 26C21.1046 26 22 25.1046 22 24C22 22.8954 21.1046 22 20 22C18.8954 22 18 22.8954 18 24C18 25.1046 18.8954 26 20 26Z" fill="#C62828"/>
<path d="M21 27C21 26.4477 20.5523 26 20 26C19.4477 26 19 26.4477 19 27V29C19 29.5523 19.4477 30 20 30C20.5523 30 21 29.5523 21 29V27Z" fill="#C62828"/>
</svg>
