<svg width="16" height="16" viewBox="0 0 16 16" fill="none" xmlns="http://www.w3.org/2000/svg">
<path d="M6.44347 2.75546C6.48019 2.3692 6.65959 2.01051 6.94663 1.74946C7.23367 1.48841 7.60773 1.34375 7.99573 1.34375C8.38373 1.34375 8.75778 1.48841 9.04483 1.74946C9.33187 2.01051 9.51127 2.3692 9.54799 2.75546C9.57005 3.00497 9.65191 3.2455 9.78663 3.45668C9.92135 3.66786 10.105 3.84348 10.3219 3.96866C10.5389 4.09385 10.7828 4.16492 11.0331 4.17586C11.2833 4.1868 11.5325 4.13729 11.7596 4.03151C12.1122 3.87144 12.5117 3.84828 12.8804 3.96654C13.2491 4.08479 13.5606 4.336 13.7543 4.67128C13.948 5.00655 14.01 5.40191 13.9283 5.78039C13.8466 6.15888 13.627 6.49341 13.3122 6.7189C13.1072 6.86273 12.9399 7.05381 12.8244 7.27598C12.7088 7.49815 12.6485 7.74488 12.6485 7.99529C12.6485 8.24569 12.7088 8.49242 12.8244 8.71459C12.9399 8.93676 13.1072 9.12785 13.3122 9.27168C13.627 9.49716 13.8466 9.83169 13.9283 10.2102C14.01 10.5887 13.948 10.984 13.7543 11.3193C13.5606 11.6546 13.2491 11.9058 12.8804 12.024C12.5117 12.1423 12.1122 12.1191 11.7596 11.9591C11.5325 11.8533 11.2833 11.8038 11.0331 11.8147C10.7828 11.8257 10.5389 11.8967 10.3219 12.0219C10.105 12.1471 9.92135 12.3227 9.78663 12.5339C9.65191 12.7451 9.57005 12.9856 9.54799 13.2351C9.51127 13.6214 9.33187 13.9801 9.04483 14.2411C8.75778 14.5022 8.38373 14.6468 7.99573 14.6468C7.60773 14.6468 7.23367 14.5022 6.94663 14.2411C6.65959 13.9801 6.48019 13.6214 6.44347 13.2351C6.42144 12.9855 6.33959 12.7449 6.20483 12.5336C6.07007 12.3224 5.88639 12.1467 5.66933 12.0215C5.45227 11.8963 5.20824 11.8253 4.9579 11.8144C4.70756 11.8035 4.45829 11.8531 4.2312 11.9591C3.87862 12.1191 3.47911 12.1423 3.1104 12.024C2.74169 11.9058 2.43017 11.6546 2.23647 11.3193C2.04277 10.984 1.98075 10.5887 2.06247 10.2102C2.1442 9.83169 2.36382 9.49716 2.67861 9.27168C2.88359 9.12785 3.05091 8.93676 3.16643 8.71459C3.28195 8.49242 3.34226 8.24569 3.34226 7.99529C3.34226 7.74488 3.28195 7.49815 3.16643 7.27598C3.05091 7.05381 2.88359 6.86273 2.67861 6.7189C2.36426 6.4933 2.14503 6.15889 2.0635 5.78067C1.98197 5.40244 2.04398 5.00741 2.23747 4.67235C2.43096 4.33729 2.74212 4.08614 3.11046 3.9677C3.4788 3.84927 3.87802 3.87201 4.23053 4.03151C4.45759 4.13729 4.7068 4.1868 4.95705 4.17586C5.2073 4.16492 5.45123 4.09385 5.6682 3.96866C5.88517 3.84348 6.06878 3.66786 6.2035 3.45668C6.33821 3.2455 6.42007 3.00497 6.44214 2.75546" stroke="#C62828" stroke-width="1.3327" stroke-linecap="round" stroke-linejoin="round"/>
<path d="M7.99709 9.99418C9.10113 9.99418 9.99614 9.09918 9.99614 7.99514C9.99614 6.8911 9.10113 5.99609 7.99709 5.99609C6.89305 5.99609 5.99805 6.8911 5.99805 7.99514C5.99805 9.09918 6.89305 9.99418 7.99709 9.99418Z" stroke="#C62828" stroke-width="1.3327" stroke-linecap="round" stroke-linejoin="round"/>
</svg>
