<svg width="24" height="24" viewBox="0 0 24 24" fill="none" xmlns="http://www.w3.org/2000/svg">
<path d="M4 2V21.9983L5.99983 20.9984L7.99966 21.9983L9.99949 20.9984L11.9993 21.9983L13.9991 20.9984L15.999 21.9983L17.9988 20.9984L19.9986 21.9983V2L17.9988 2.99991L15.999 2L13.9991 2.99991L11.9993 2L9.99949 2.99991L7.99966 2L5.99983 2.99991L4 2Z" stroke="#C62828" stroke-width="1.99983" stroke-linecap="round" stroke-linejoin="round"/>
<path d="M15.999 8H9.99902C9.46859 8 8.95988 8.21071 8.58481 8.58579C8.20974 8.96086 7.99902 9.46957 7.99902 10C7.99902 10.5304 8.20974 11.0391 8.58481 11.4142C8.95988 11.7893 9.46859 12 9.99902 12H13.999C14.5295 12 15.0382 12.2107 15.4132 12.5858C15.7883 12.9609 15.999 13.4696 15.999 14C15.999 14.5304 15.7883 15.0391 15.4132 15.4142C15.0382 15.7893 14.5295 16 13.999 16H7.99902" stroke="#C62828" stroke-width="1.99983" stroke-linecap="round" stroke-linejoin="round"/>
<path d="M11.999 17.5V6.5" stroke="#C62828" stroke-width="1.99983" stroke-linecap="round" stroke-linejoin="round"/>
</svg>
