<svg width="24" height="24" viewBox="0 0 24 24" fill="none" xmlns="http://www.w3.org/2000/svg">
<path d="M15.999 10C15.999 11.0609 15.5776 12.0783 14.8275 12.8284C14.0773 13.5786 13.0599 14 11.999 14C10.9382 14 9.92074 13.5786 9.1706 12.8284C8.42045 12.0783 7.99902 11.0609 7.99902 10" stroke="#FF9800" stroke-width="1.99983" stroke-linecap="round" stroke-linejoin="round"/>
<path d="M3.10254 6.0332H20.895" stroke="#FF9800" stroke-width="1.99983" stroke-linecap="round" stroke-linejoin="round"/>
<path d="M3.39997 5.4667C3.14034 5.81287 3 6.2339 3 6.6666V19.9985C3 20.5288 3.2107 21.0375 3.58574 21.4126C3.96078 21.7876 4.46944 21.9983 4.99983 21.9983H18.9986C19.529 21.9983 20.0377 21.7876 20.4127 21.4126C20.7878 21.0375 20.9985 20.5288 20.9985 19.9985V6.6666C20.9985 6.2339 20.8581 5.81287 20.5985 5.4667L18.5987 2.79993C18.4124 2.55156 18.1708 2.34997 17.8932 2.21113C17.6155 2.07228 17.3093 2 16.9988 2H6.99966C6.68919 2 6.38299 2.07228 6.10531 2.21113C5.82762 2.34997 5.58607 2.55156 5.3998 2.79993L3.39997 5.4667Z" stroke="#FF9800" stroke-width="1.99983" stroke-linecap="round" stroke-linejoin="round"/>
</svg>
